<?xml version="1.0" encoding="iso-8859-1"?>
<!-- Generator: Adobe Illustrator 19.0.0, SVG Export Plug-In . SVG Version: 6.00 Build 0)  -->
<svg version="1.1" id="Capa_1" xmlns="http://www.w3.org/2000/svg" xmlns:xlink="http://www.w3.org/1999/xlink" x="0px" y="0px"
	 viewBox="0 0 512.076 512.076" style="enable-background:new 0 0 512.076 512.076;" xml:space="preserve">
<g transform="translate(-1 -1)">
	<g>
		<g>
			<path d="M499.639,396.039l-103.646-69.12c-13.153-8.701-30.784-5.838-40.508,6.579l-30.191,38.818
				c-3.883,5.113-10.932,6.596-16.546,3.482l-5.743-3.166c-19.038-10.377-42.726-23.296-90.453-71.04s-60.672-71.45-71.049-90.453
				l-3.149-5.743c-3.161-5.612-1.705-12.695,3.413-16.606l38.792-30.182c12.412-9.725,15.279-27.351,6.588-40.508l-69.12-103.646
				C109.12,1.056,91.25-2.966,77.461,5.323L34.12,31.358C20.502,39.364,10.511,52.33,6.242,67.539
				c-15.607,56.866-3.866,155.008,140.706,299.597c115.004,114.995,200.619,145.92,259.465,145.92
				c13.543,0.058,27.033-1.704,40.107-5.239c15.212-4.264,28.18-14.256,36.181-27.878l26.061-43.315
				C517.063,422.832,513.043,404.951,499.639,396.039z M494.058,427.868l-26.001,43.341c-5.745,9.832-15.072,17.061-26.027,20.173
				c-52.497,14.413-144.213,2.475-283.008-136.32S8.29,124.559,22.703,72.054c3.116-10.968,10.354-20.307,20.198-26.061
				l43.341-26.001c5.983-3.6,13.739-1.855,17.604,3.959l37.547,56.371l31.514,47.266c3.774,5.707,2.534,13.356-2.85,17.579
				l-38.801,30.182c-11.808,9.029-15.18,25.366-7.91,38.332l3.081,5.598c10.906,20.002,24.465,44.885,73.967,94.379
				c49.502,49.493,74.377,63.053,94.37,73.958l5.606,3.089c12.965,7.269,29.303,3.898,38.332-7.91l30.182-38.801
				c4.224-5.381,11.87-6.62,17.579-2.85l103.637,69.12C495.918,414.126,497.663,421.886,494.058,427.868z"/>
			<path d="M350.895,239.99h34.133v42.667c0.001,3.451,2.08,6.562,5.268,7.882c3.188,1.32,6.858,0.591,9.298-1.849l48.7-48.7h39.134
				c14.138,0,25.6-11.461,25.6-25.6v-85.333c0-14.138-11.461-25.6-25.6-25.6H350.895c-14.138,0-25.6,11.461-25.6,25.6v85.333
				C325.295,228.528,336.756,239.99,350.895,239.99z M342.361,129.056c0-4.713,3.82-8.533,8.533-8.533h136.533
				c4.713,0,8.533,3.82,8.533,8.533v85.333c0,4.713-3.82,8.533-8.533,8.533h-42.667c-2.263,0-4.433,0.9-6.033,2.5l-36.634,36.634
				v-30.601c0-4.713-3.821-8.533-8.533-8.533h-42.667c-4.713,0-8.533-3.821-8.533-8.533V129.056z"/>
			<path d="M367.961,180.256h42.667c4.713,0,8.533-3.82,8.533-8.533s-3.82-8.533-8.533-8.533h-42.667
				c-4.713,0-8.533,3.82-8.533,8.533S363.248,180.256,367.961,180.256z"/>
			<path d="M444.761,180.256h25.6c4.713,0,8.533-3.82,8.533-8.533s-3.82-8.533-8.533-8.533h-25.6c-4.713,0-8.533,3.82-8.533,8.533
				S440.048,180.256,444.761,180.256z"/>
		</g>
	</g>
</g>
<g>
</g>
<g>
</g>
<g>
</g>
<g>
</g>
<g>
</g>
<g>
</g>
<g>
</g>
<g>
</g>
<g>
</g>
<g>
</g>
<g>
</g>
<g>
</g>
<g>
</g>
<g>
</g>
<g>
</g>
</svg>
