<?xml version="1.0" encoding="iso-8859-1"?>
<!-- Generator: Adobe Illustrator 19.0.0, SVG Export Plug-In . SVG Version: 6.00 Build 0)  -->
<svg version="1.1" id="Capa_1" xmlns="http://www.w3.org/2000/svg" xmlns:xlink="http://www.w3.org/1999/xlink" x="0px" y="0px"
	 viewBox="0 0 512 512" style="enable-background:new 0 0 512 512;" xml:space="preserve">
<g>
	<g>
		<g>
			<path d="M358.4,307.2c-4.713,0-8.533,3.82-8.533,8.533v102.4h-25.6c-4.713,0-8.533,3.82-8.533,8.533s3.82,8.533,8.533,8.533h25.6
				v51.2c0,4.713-3.821,8.533-8.533,8.533h-256c-4.713,0-8.533-3.82-8.533-8.533v-51.2h196.267c4.713,0,8.533-3.82,8.533-8.533
				s-3.82-8.533-8.533-8.533H76.8v-332.8h25.6c4.713,0,8.533-3.82,8.533-8.533s-3.821-8.533-8.533-8.533H76.8V25.6
				c0-4.713,3.82-8.533,8.533-8.533h256c4.713,0,8.533,3.82,8.533,8.533v42.667H153.6c-4.713,0-8.533,3.82-8.533,8.533
				s3.82,8.533,8.533,8.533h204.8c4.713,0,8.533-3.82,8.533-8.533V25.6c0-14.138-11.462-25.6-25.6-25.6h-256
				c-14.138,0-25.6,11.461-25.6,25.6v460.8c0,14.138,11.461,25.6,25.6,25.6h256c14.138,0,25.6-11.461,25.6-25.6V315.733
				C366.933,311.021,363.113,307.2,358.4,307.2z"/>
			<path d="M204.8,460.8c-4.713,0-8.533,3.82-8.533,8.533s3.82,8.533,8.533,8.533h17.067c4.713,0,8.533-3.82,8.533-8.533
				s-3.821-8.533-8.533-8.533H204.8z"/>
			<path d="M435.2,110.933H264.533c-9.426,0-17.067,7.641-17.067,17.067v136.533c0,9.426,7.641,17.067,17.067,17.067h8.533v42.667
				c0.001,3.451,2.08,6.562,5.268,7.882c3.188,1.32,6.858,0.591,9.298-1.849l48.7-48.7H435.2c9.426,0,17.067-7.641,17.067-17.067
				V128C452.267,118.574,444.626,110.933,435.2,110.933z M435.2,264.533H332.8c-1.119,0.005-2.226,0.229-3.26,0.657
				c-1.037,0.426-1.979,1.053-2.773,1.843l-36.634,36.634v-30.601c0-4.713-3.821-8.533-8.533-8.533h-17.067V128H435.2V264.533z"/>
		</g>
	</g>
</g>
<g>
</g>
<g>
</g>
<g>
</g>
<g>
</g>
<g>
</g>
<g>
</g>
<g>
</g>
<g>
</g>
<g>
</g>
<g>
</g>
<g>
</g>
<g>
</g>
<g>
</g>
<g>
</g>
<g>
</g>
</svg>
