<svg id="Layer_1" enable-background="new 0 0 512 512" height="512" viewBox="0 0 512 512" width="512" xmlns="http://www.w3.org/2000/svg"><path d="m319.984 92s20.016 69.667 20.016 97-30.333 50-84 50-84-22.667-84-50 20.016-97 20.016-97z" fill="#6e83b7"/><path d="m428.633 189.397-9.252 32.543 2.341 18.074 31.714 10.208 11.947-13.683 11.206-31.923z" fill="#fcb98b"/><path d="m425.38 237.349h18.677v33.316h-18.677z" fill="#ffd3b3" transform="matrix(.306 -.952 .952 .306 59.739 589.998)"/><path d="m394 79.341h110v149h-110z" fill="#edeff1"/><path d="m445.957 204.587-14.359-4.544c-5.51-1.744-11.393 1.293-13.164 6.794-.474 1.473-.617 3.032-.418 4.566l3.706 28.612 16.768 5.397 2.98-7.721c1.909-4.946 1.399-10.499-1.379-15.014l-4.911-7.982 6.944 2.147c3.36 1.039 6.93-.819 8.008-4.167 1.09-3.387-.783-7.015-4.175-8.088z" fill="#ffd3b3"/><g fill="#6e83b7"><path d="m490 192.341h-85v-93h6v87h79z"/><path d="m418 159.341h18v21h-18z"/><path d="m445 145.341h18v35h-18z"/><path d="m472 134.341h18v46h-18z"/><path d="m454.032 133.051-13.876-9.912-11.218 9.492-3.876-4.58 14.782-12.508 14.124 10.088 15.558-11.526 3.573 4.823z"/><path d="m474.329 124.707 6.671-15.366-16.644 1.903z"/></g><path d="m91.278 238.014 2.713-15.451c-.578-5.297-1.692-10.522-3.325-15.596l-6.299-19.569-48.731 15.685 6.311 19.576c1.633 5.065 3.775 9.953 6.393 14.586l11.224 10.978 5.722 17.777 31.714-10.207z" fill="#ffd3b3"/><path d="m76.493 204.705 12.19-3.897 1.982 6.159c.502 1.559.937 3.137 1.341 4.723-.54.294-1.111.548-1.718.743l-13.364 4.301c-3.362 1.082-6.881.27-9.418-1.831-.447-.114-.887-.251-1.313-.425-1.204 1.916-3.058 3.437-5.376 4.183s-4.711.592-6.807-.262c-1.204 1.916-3.059 3.437-5.376 4.183-2.313.744-4.702.593-6.795-.256l-6.204-19.245 36.548-11.763z" fill="#fcb98b"/><path d="m72.184 191.318 12.183-3.921-11.474-35.647c-1.075-3.34-4.654-5.177-7.995-4.102l-.087.028c-3.34 1.075-5.177 4.654-4.102 7.995z" fill="#ffd3b3"/><path d="m71.863 211.355.087-.028c3.34-1.075 5.177-4.654 4.102-7.995l-6.791-21.1c-1.075-3.34-4.654-5.177-7.995-4.102l-.086.028c-3.34 1.075-5.177 4.654-4.102 7.995l6.791 21.1c1.074 3.34 4.653 5.177 7.994 4.102z" fill="#ffd3b3"/><path d="m93.325 200.981c-1.083-3.364-4.688-5.214-8.052-4.131l-13.364 4.301c-3.364 1.083-5.214 4.688-4.131 8.052 1.083 3.364 4.688 5.214 8.052 4.131l13.364-4.301c3.364-1.083 5.213-4.688 4.131-8.052z" fill="#ffd3b3"/><path d="m59.68 215.276.086-.028c3.34-1.075 5.177-4.654 4.102-7.995l-5.97-18.55c-1.075-3.34-4.654-5.177-7.995-4.102l-.086.028c-3.34 1.075-5.177 4.654-4.102 7.995l5.97 18.55c1.075 3.34 4.654 5.177 7.995 4.102z" fill="#ffd3b3"/><path d="m47.497 219.197.087-.028c3.34-1.075 5.177-4.654 4.102-7.995l-4.329-13.45c-1.075-3.34-4.654-5.177-7.995-4.102l-.087.028c-3.34 1.075-5.177 4.654-4.102 7.995l4.329 13.45c1.075 3.341 4.655 5.177 7.995 4.102z" fill="#ffd3b3"/><path d="m73.973 243.51c-.038-.139-3.878-13.88-14.294-16.549l.744-2.906c12.125 3.106 16.276 18.039 16.447 18.674z" fill="#fcb98b"/><circle cx="71" cy="71" fill="#6e83b7" r="66"/><circle cx="71" cy="71" fill="#edeff1" r="55"/><path d="m68 19.333h6v12.062h-6z" fill="#6e83b7"/><path d="m110.605 68h12.061v6h-12.061z" fill="#6e83b7"/><path d="m68 110.605h6v12.062h-6z" fill="#6e83b7"/><path d="m19.333 68h12.061v6h-12.061z" fill="#6e83b7"/><path d="m84.594 88.836-16.594-16.594v-32.014h6v29.53l14.836 14.836z" fill="#6e83b7"/><circle cx="71" cy="71" fill="#6e83b7" r="6.34"/><path d="m161.931 131c0-2.973-.384-5.854-1.1-8.603l13.169-7.603-9-15.588-13.178 7.608c-4.086-4.036-9.189-7.04-14.891-8.602v-15.212h-18v15.213c-5.701 1.562-10.805 4.565-14.891 8.602l-13.178-7.608-9 15.588 13.169 7.604c-.716 2.748-1.1 5.63-1.1 8.603s.384 5.854 1.1 8.603l-13.17 7.604 9 15.588 13.179-7.608c4.086 4.036 9.189 7.04 14.891 8.602v15.209h18v-15.213c5.701-1.562 10.805-4.565 14.891-8.602l13.178 7.609 9-15.588-13.17-7.604c.717-2.748 1.101-5.629 1.101-8.602zm-34 12c-6.627 0-12-5.373-12-12s5.373-12 12-12 12 5.373 12 12-5.373 12-12 12z" fill="#d3d3d3"/><path d="m127.931 156c-13.785 0-25-11.215-25-25s11.215-25 25-25 25 11.215 25 25-11.215 25-25 25zm0-44c-10.477 0-19 8.523-19 19s8.523 19 19 19 19-8.523 19-19-8.524-19-19-19z" fill="#edeff1"/><path d="m411 241-14.564 47.547-7.837-21.061c-6.663-17.908-21.457-31.571-39.837-36.792l-58.762-16.694h-34-34l-58.763 16.694c-18.38 5.221-33.174 18.884-39.837 36.792l-7.837 21.061-14.563-47.547-48 15 33 112 4.847 15.994c7.882 26.01 44.469 26.67 53.283.961l19.87-57.955s-1.167 17 5 36c3.468 10.685 9 25.721 9 42 0 18.372-8.101 39.404-13 59-4.667 18.667-4 43-4 43h95 95s.667-24.333-4-43c-4.899-19.596-13-40.628-13-59 0-16.279 5.532-31.315 9-42 6.167-19 5-36 5-36l19.87 57.955c8.815 25.709 45.401 25.049 53.283-.961l4.847-15.994 33-112z" fill="#6e83b7"/><path d="m295 257h6v250h-6z" fill="#466089"/><path d="m161 507h95v-293h-34l-58.763 16.694c-18.38 5.221-33.173 18.885-39.837 36.792l-37.4 100.514 4.847 15.994c7.882 26.01 44.469 26.67 53.283.961l19.87-57.955s-1.167 17 5 36c3.468 10.684 9 25.721 9 42 0 18.372-8.101 39.405-13 59-4.667 18.667-4 43-4 43z" fill="#6e83b7"/><path d="m211 257h6v250h-6z" fill="#466089"/><path d="m217 275v232h39v-293h-34z" fill="#edeff1"/><path d="m295 275v232h-39v-293h34z" fill="#edeff1"/><path d="m253 256h6v251h-6z" fill="#d3d3d3"/><path d="m222 214h34v42l-23.419 24.175c-4.333 4.472-11.694 3.97-15.295-1.11-5.632-7.945-12.286-20.954-12.286-38.065 0 0 .625-22.5 17-27z" fill="#d3d3d3"/><path d="m290 214h-34v42l23.419 24.175c4.333 4.472 11.694 3.97 15.295-1.11 5.632-7.945 12.286-20.954 12.286-38.065 0 0-.625-22.5-17-27z" fill="#d3d3d3"/><path d="m136.61 331.346-17.042-53.56-4.004 10.761 19.436 63.453c3.206-6.412 3.784-13.822 1.61-20.654z" fill="#466089"/><path d="m290 222v-8l-7-3v-30h-54v30l-7 3v8c0 18.778 15.222 34 34 34 18.778 0 34-15.222 34-34z" fill="#ffd3b3"/><path d="m314 92h6.598c6.041 0 10.703 5.315 9.915 11.305l-2.597 19.739c-.524 3.981-3.917 6.956-7.932 6.956h-5.984z" fill="#ffd3b3"/><path d="m198 92h-6.598c-6.041 0-10.703 5.315-9.915 11.305l2.597 19.739c.524 3.981 3.917 6.956 7.932 6.956h5.984z" fill="#ffd3b3"/><path d="m229 194.396c8.282 3.598 17.41 5.604 27 5.604s18.718-2.006 27-5.604v-13.396h-54z" fill="#fcb98b"/><path d="m314 132c0 32.033-25.967 58-58 58s-58-25.967-58-58v-76h116z" fill="#ffd3b3"/><path d="m314 92h7v-22c0-35.898-29.101-65-65-65-35.898 0-65 29.101-65 65v22h7v38l4.849-13.427c4.891-13.546 17.749-22.573 32.151-22.573 35 0 41-24 41-24s.667 14.5 24 26c0 0 14 7.333 14 20z" fill="#6e83b7"/><path d="m375.39 331.346 17.042-53.56 4.004 10.761-19.436 63.453c-3.206-6.412-3.784-13.822-1.61-20.654z" fill="#466089"/><path d="m259 146.749h-9.842l3.931-15.728 5.821 1.456-2.068 8.272h2.158z" fill="#fcb98b"/><path d="m266 101.749s16.939-7.347 33 3c0 0-13.75-3.375-30 3z" fill="#6e83b7"/><path d="m246 101.749s-16.939-7.347-33 3c0 0 13.75-3.375 30 3z" fill="#6e83b7"/><path d="m284 139.749h-10c-2.209 0-4-1.791-4-4 0-2.209 1.791-4 4-4h10c2.209 0 4 1.791 4 4 0 2.209-1.791 4-4 4z" fill="#ffc69f"/><path d="m228 139.749h10c2.209 0 4-1.791 4-4 0-2.209-1.791-4-4-4h-10c-2.209 0-4 1.791-4 4 0 2.209 1.791 4 4 4z" fill="#ffc69f"/><path d="m236 115.749c-.022 0-.044.003-.067.003-.62.028-5.516.18-7.933-2.003 0 0 .619 2.919 2.817 4.987-.516.886-.817 1.913-.817 3.013 0 3.314 2.686 6 6 6s6-2.686 6-6-2.686-6-6-6z" fill="#6e83b7"/><path d="m276 115.749c.022 0 .044.003.067.003.62.028 5.516.18 7.933-2.003 0 0-.619 2.919-2.817 4.987.516.886.817 1.913.817 3.013 0 3.314-2.686 6-6 6s-6-2.686-6-6 2.686-6 6-6z" fill="#6e83b7"/><path d="m246 160h20l-.106.425c-1.113 4.452-5.113 7.575-9.701 7.575h-.384c-4.589 0-8.589-3.123-9.701-7.575z" fill="#edeff1"/></svg>