<svg enable-background="new 0 0 36 36" height="30" viewBox="0 0 36 36" width="30" xmlns="http://www.w3.org/2000/svg"><path d="m27.417 3.914c-6.915.129-11.732-3.365-15.064-3.302s-10.296 2.109-10.009 17.44 9.744 17.404 13.41 17.336c17.163-.321 23.911-31.703 11.663-31.474z" fill="#efefef"/><path d="m21.25 27.25c0 1.105-.895 2-2 2h-10.5c-1.105 0-2-.895-2-2v-18.5c0-1.105.895-2 2-2h10.5c1.105 0 2 .895 2 2z" fill="#2fdf84"/><path d="m9 27.25v-18.5c0-1.105.895-2 2-2h-2.25c-1.105 0-2 .895-2 2v18.5c0 1.105.895 2 2 2h2.25c-1.105 0-2-.895-2-2z" fill="#00b871"/><g fill="#a4afc1"><path d="m24.405 30.457h1v2h-1z" transform="matrix(.707 -.707 .707 .707 -14.949 26.824)"/><path d="m24.082 26.891h2v1h-2z" transform="matrix(.707 -.707 .707 .707 -12.022 25.758)"/><path d="m20.016 30.957h2v1h-2z" transform="matrix(.707 -.707 .707 .707 -16.088 24.074)"/><path d="m22.5 6.467c-.827 0-1.5-.673-1.5-1.5s.673-1.5 1.5-1.5 1.5.673 1.5 1.5-.673 1.5-1.5 1.5zm0-2c-.276 0-.5.224-.5.5s.224.5.5.5.5-.224.5-.5-.224-.5-.5-.5z"/></g><path d="m19.25 30h-10.5c-1.517 0-2.75-1.233-2.75-2.75v-18.5c0-1.517 1.233-2.75 2.75-2.75h10.5c1.517 0 2.75 1.233 2.75 2.75v5.5h-1.5v-5.5c0-.689-.561-1.25-1.25-1.25h-10.5c-.689 0-1.25.561-1.25 1.25v18.5c0 .689.561 1.25 1.25 1.25h10.5c.689 0 1.25-.561 1.25-1.25v-5.5h1.5v5.5c0 1.517-1.233 2.75-2.75 2.75z"/><path d="m14.75 17.25h14.5v1.5h-14.5z"/><path d="m25.78 22.53-1.06-1.06 3.47-3.47-3.47-3.47 1.061-1.061 4 4c.293.293.293.768 0 1.061z"/></svg>