<svg id="Layer_1" enable-background="new 0 0 512 512" height="512" viewBox="0 0 512 512" width="512" xmlns="http://www.w3.org/2000/svg"><path d="m340.759 221.621-57.559-16.527h-54l-61.071 18.063c-6.512 1.926-12.427 5.478-17.186 10.322l-90.437 92.038c-9.123 9.285-11.218 23.393-5.186 34.928l46.108 88.172 43.45-23.003-34.868-69 48.189-42.521v146c0 2.652 1.053 5.196 2.929 7.071l1.071 1.071v20l-1.071 1.071c-1.875 1.875-2.929 4.419-2.929 7.071v10.716h196v-10.716c0-2.652-1.054-5.196-2.929-7.071l-1.071-1.071v-20l1.071-1.071c1.875-1.875 2.929-4.419 2.929-7.071v-26h4c14.359 0 26-11.641 26-26v-128.802c.001-26.76-17.72-50.285-43.44-57.67z" fill="#80d6fb"/><path d="m162.2 468.236h188v20h-188z" fill="#ffb0aa"/><path d="m149.2 450.094 9.091 9.025c3.782 3.755 5.909 8.864 5.909 14.193v33.781h-36l-14-37z" fill="#ffd3b3"/><path d="m99.296 454.168 10.393 20.787c1.015 2.03 3.513 2.81 5.503 1.717l43.932-24.12c1.904-1.045 2.626-3.419 1.626-5.348l-10.345-19.951c-1.023-1.973-3.458-2.734-5.423-1.694l-43.981 23.284c-1.919 1.017-2.676 3.381-1.705 5.325z" fill="#ffb0aa"/><path d="m252.2 226.094h8v64h-8z" fill="#46bee8"/><path d="m179.2 296.094h48v8h-48z" fill="#46bee8"/><path d="m285.2 296.094h48v8h-48z" fill="#46bee8"/><path d="m229.2 198.094-15.819 11.505c-3.649 2.654-5.069 7.422-3.466 11.64l11.272 29.664c2.208 5.809 9.907 6.993 13.757 2.115l21.256-26.924z" fill="#ffb0aa"/><path d="m283.2 198.094 15.819 11.505c3.649 2.654 5.069 7.422 3.466 11.64l-11.272 29.664c-2.208 5.809-9.907 6.993-13.757 2.115l-21.256-26.924z" fill="#ffb0aa"/><path d="m256.2 226.094c-14.912 0-27-12.088-27-27v-27h54v27c0 14.912-12.088 27-27 27z" fill="#ffd3b3"/><path d="m229.2 186.791c8.267 3.651 17.395 5.701 27 5.701s18.733-2.051 27-5.701v-14.697h-54z" fill="#fcb98b"/><path d="m314.2 125.632c0 31.735-26.025 57.462-58 57.462s-58-25.727-58-57.462v-38.538h116z" fill="#ffd3b3"/><path d="m198.2 87.094h-5.918c-5.941 0-10.572 5.149-9.944 11.056l1.722 16.211c.648 6.102 5.796 10.733 11.933 10.733h2.207z" fill="#ffd3b3"/><path d="m314.2 87.094h5.918c5.941 0 10.572 5.149 9.944 11.056l-1.722 16.211c-.648 6.102-5.796 10.733-11.933 10.733h-2.207z" fill="#ffd3b3"/><path d="m261.879 140.977h-14.158l4.587-16.678 5.785 1.591-2.499 9.087h6.285z" fill="#fcb98b"/><path d="m246.2 95.094s-18.857-7.061-34 6c0 0 19.625-5 31 2z" fill="#6e83b7"/><circle cx="234.2" cy="114.094" fill="#6e83b7" r="6"/><path d="m266.2 95.094s18.857-7.061 34 6c0 0-19.625-5-31 2z" fill="#6e83b7"/><circle cx="278.2" cy="114.094" fill="#6e83b7" r="6"/><path d="m145.2 482.094h6v25h-6z" fill="#fcb98b"/><path d="m140.95 486.676h6v11.336h-6z" fill="#fcb98b" transform="matrix(.662 -.75 .75 .662 -320.469 274.538)"/><circle cx="256.2" cy="252.094" fill="#ffe352" r="10"/><path d="m131.575 410.719-9.375 10.375-10-7 3.875-13.75z" fill="#ff7b7b"/><path d="m122.2 421.094-10-7-4.833 6.5 7.417.5 3.916 4.667z" fill="#6e83b7"/><path d="m156.825 410.719 9.375 10.375 10-7-3.875-13.75z" fill="#ff7b7b"/><path d="m166.2 421.094 10-7 4.834 6.5-7.417.5-3.917 4.667z" fill="#6e83b7"/><path d="m128.2 335.428-22.259-6.957c-3.036-.949-5.911 1.854-5.04 4.913l6.466 22.711z" fill="#ffb0aa"/><path d="m104.748 332.288 15.921 4.976-11.31 11.22z" fill="#ff7b7b"/><path d="m160.2 335.428 22.259-6.957c3.036-.949 5.911 1.854 5.04 4.913l-6.466 22.711z" fill="#ffb0aa"/><path d="m183.653 332.288-15.921 4.976 11.31 11.22z" fill="#ff7b7b"/><circle cx="144.2" cy="372.094" fill="#ffb0aa" r="44"/><path d="m151.2 388.594h-14c-4.971 0-9-4.029-9-9 0-4.971 4.029-9 9-9h14c4.971 0 9 4.029 9 9 0 4.971-4.029 9-9 9z" fill="#ff7b7b"/><circle cx="136.7" cy="379.594" fill="#f76161" r="5"/><circle cx="151.7" cy="379.594" fill="#f76161" r="5"/><path d="m149.2 328.385c-1.642-.186-3.308-.291-5-.291s-3.358.105-5 .291v13.709h10z" fill="#ff7b7b"/><path d="m384.2 318.094h-57v90c0 15.737 11.79 28.764 27 30.733v-4.733h4c14.359 0 26-11.641 26-26z" fill="#46bee8"/><path d="m358.2 434.094c-14.359 0-26-11.641-26-26v-85h52v85c0 14.36-11.64 26-26 26z" fill="#80d6fb"/><path d="m387.2 323.094h-58c-1.105 0-2-.895-2-2v-19c0-1.105.895-2 2-2h58c1.105 0 2 .895 2 2v19c0 1.105-.895 2-2 2z" fill="#ffb0aa"/><path d="m335.2 300.094v-16.166c0-3.792-1.657-7.395-4.536-9.863l-.002-.002c-1.616-1.385-2.867-3.147-3.643-5.129l-14.149-36.158c-1.512-3.864.172-8.244 3.883-10.1 4.067-2.034 9.01-.284 10.892 3.856l5.518 13.557c1.253 3.078 4.106 5.211 7.413 5.542 2.9.29 5.759-.847 7.668-3.049l6.043-6.973c2.37-2.734 2.864-6.625 1.252-9.865l-10.583-21.279c-1.129-2.257-3.07-4.004-5.434-4.888l-6.029-2.255c-3.469-1.298-5.214-5.175-3.884-8.632l.063-.164c1.395-3.625 5.46-5.38 9.022-3.92 5.558 2.277 12.671 5.187 12.671 5.187 1.848.756 3.427 2.047 4.534 3.708l14.301 23.451 18.167 8.326c3.555 1.629 5.833 5.181 5.833 9.091v34.468c0 4.022-1.515 7.897-4.243 10.852l-5.105 5.53c-1.705 1.847-2.652 4.269-2.652 6.783v8.09h-47z" fill="#ffd3b3"/><path d="m388.367 225.28-18.167-8.326-1.61-2.64-15.198 4.721c-.356.104-.686.22-1.003.355-.003.001-.005.002-.008.004l3.159 6.351c1.611 3.24 1.117 7.131-1.252 9.865l-6.043 6.973c-1.086 1.253-2.484 2.146-4.017 2.643.271 4.911 3.288 9.267 7.853 11.227l18.442 7.897c1.626.701 3.35 1.056 5.123 1.056 1.395 0 2.776-.223 4.114-.665l1.288-.429c3.68-1.227 6.152-4.658 6.152-8.537v-7.714c0-.766.411-1.482 1.072-1.867l5.928-3.456v-8.366c0-3.912-2.279-7.463-5.833-9.092z" fill="#fcb98b"/><path d="m394.2 234.374v4.89l-7.438 4.336c-1.586.925-2.562 2.623-2.562 4.459v7.714c0 2.582-1.652 4.874-4.101 5.691l-1.289.43c-2.33.77-4.85.67-7.1-.3l-18.45-7.9c-3.68-1.58-6.06-5.19-6.06-9.19v-13.04c0-4.13 2.54-7.82 6.33-9.3.23-.1.46-.18.7-.25l15.97-4.96 18.17 8.33c3.55 1.62 5.83 5.18 5.83 9.09z" fill="#ffd3b3"/><path d="m358.2 256.094h-4v-22.797c0-3.352 2.116-6.373 5.266-7.518l7.051-2.564 1.367 3.759-7.051 2.564c-1.575.573-2.633 2.083-2.633 3.759z" fill="#fcb98b"/><path d="m371.2 262.094h-4v-22.292c0-3.05 1.694-5.791 4.422-7.155l4.684-2.342 1.789 3.578-4.684 2.342c-1.363.682-2.211 2.053-2.211 3.578z" fill="#fcb98b"/><circle cx="330.2" cy="214.094" fill="#ffe352" r="20"/><path d="m353.2 283.094h4v17h-4z" fill="#fcb98b"/><circle cx="330.2" cy="214.094" fill="#ffb236" r="16"/><g fill="#6e83b7"><path d="m332.2 224.094h-4c-3.309 0-6-2.692-6-6h4c0 1.103.897 2 2 2h4c1.103 0 2-.897 2-2s-.897-2-2-2h-4c-3.309 0-6-2.692-6-6s2.691-6 6-6h4c3.309 0 6 2.692 6 6h-4c0-1.103-.897-2-2-2h-4c-1.103 0-2 .897-2 2s.897 2 2 2h4c3.309 0 6 2.692 6 6 0 3.309-2.691 6-6 6z"/><path d="m328.2 202.094h4v4h-4z"/><path d="m328.2 222.094h4v4h-4z"/><path d="m183.2 74.094h146v13h-146z"/><path d="m195.2 5.094h122v69h-122z"/></g><path d="m195.2 56.094h122v18h-122z" fill="#ffb0aa"/><path d="m314.2 87.094v20l-10-20z" fill="#6e83b7"/><path d="m198.2 87.094v20l10-20z" fill="#6e83b7"/><path d="m246.2 156.094h20l-.106.425c-1.113 4.452-5.113 7.575-9.701 7.575h-.384c-4.589 0-8.589-3.123-9.701-7.575z" fill="#edeff1"/><circle cx="241.7" cy="123.594" fill="#80d6fb" r="10"/><path d="m232.439 119.83c.557.171 1.148.264 1.761.264 3.314 0 6-2.686 6-6 0-.126-.011-.249-.019-.373-3.522.539-6.438 2.905-7.742 6.109z" fill="#46bee8"/><circle cx="270.7" cy="123.594" fill="#80d6fb" r="10"/><path d="m279.962 119.83c-.557.171-1.148.264-1.761.264-3.314 0-6-2.686-6-6 0-.126.011-.249.019-.373 3.521.539 6.438 2.905 7.742 6.109z" fill="#46bee8"/><path d="m250.271 123.265-4.162-4.321c.161-.157 4.026-3.85 10.092-3.85s9.931 3.693 10.092 3.85l-4.162 4.321c-.096-.089-2.367-2.171-5.93-2.171s-5.835 2.083-5.93 2.171z" fill="#6e83b7"/></svg>