<svg id="Layer_1" enable-background="new 0 0 512 512" height="512" viewBox="0 0 512 512" width="512" xmlns="http://www.w3.org/2000/svg"><path d="m459.763 261.67-47.772-14.651-14.706 47.95-8.215-22.317c-6.528-17.735-21.03-31.357-39.137-36.765l-47.167-14.087h-46.566-46.566l-47.168 14.087c-18.108 5.408-32.609 19.031-39.137 36.765l-8.215 22.317-14.706-47.95-47.771 14.651 33.938 110.66.073-.022-.023.062.636 3.1c5.956 29.039 45.934 32.766 57.156 5.329l19.784-48.372v158.766h184v-158.766l19.783 48.372c11.222 27.437 51.2 23.71 57.156-5.329l.636-3.1-.023-.062.073.022z" fill="#6e83b7"/><path d="m416.22 194.764c-.254-3.33 2.073-6.305 5.366-6.86 3.609-.608 7.002 1.902 7.476 5.532 0 0 .633 7.027 1.082 11.795.028.292.079.578.141.86.423 1.933 1.628 3.601 3.33 4.621l-15.235 10.869-1.123-13.254z" fill="#ffd3b3"/><path d="m370.2 86.094h80v110h-80z" fill="#edeff1"/><path d="m376.2 97.094h68v6h-68z" fill="#d3d3d3"/><path d="m376.2 112.094h68v6h-68z" fill="#d3d3d3"/><path d="m376.2 127.094h68v6h-68z" fill="#d3d3d3"/><path d="m376.2 142.094h68v6h-68z" fill="#d3d3d3"/><path d="m376.2 157.094h68v6h-68z" fill="#d3d3d3"/><path d="m420.168 230.737v-.002c-1.317-1.378-1.452-3.099-1.582-4.808l-.286-4.333 15.275-10.875c.295.176.619.336.942.471l.102.037c2.058.861 4.41.674 6.306-.502l6.504-4.033c2.468-1.547 3.765-4.426 3.287-7.299l-4.377-15.228-4.57-.344-1.077 2.424c-1.23 2.769-4.38 4.129-7.238 3.127-3.127-1.096-4.707-4.579-3.473-7.655l1.724-4.294c1.399-3.484 4.835-5.714 8.586-5.573l9.452.356c3.555.134 6.687 2.373 7.965 5.693l1.965 5.107 4.397 13.071 12.023 10.684c2.353 2.091 3.271 5.36 2.351 8.37l-8.112 26.53c-.947 3.096-3.024 5.722-5.82 7.355l-5.231 3.055c-1.747 1.021-3.046 2.662-3.638 4.597l-1.045 3.418-36.121-11.078 2.876-9.615c.893-2.919.341-6.06-1.185-8.656z" fill="#ffd3b3"/><path d="m453.177 232.631-12.325-10.421c-3.045-2.576-4.317-6.628-3.384-10.463 1.208-.032 2.403-.369 3.458-1.023l6.504-4.033c2.468-1.547 3.765-4.426 3.287-7.299l-1.651-5.745h14.189l.817 2.428 12.023 10.684c2.353 2.091 3.271 5.36 2.351 8.37l-1.868 6.11-5.877 1.472c-.6.141-1.048.607-1.228 1.196l-1.815 5.938c-.913 2.986-3.44 5.1-6.562 5.178l-.909.083c-1.134.026-2.247-.129-3.32-.457-1.367-.415-2.604-1.096-3.69-2.018z" fill="#fcb98b"/><path d="m478.444 215.134-1.151 3.764-6.746 1.587c-1.439.339-2.589 1.416-3.021 2.829l-1.816 5.938c-.608 1.987-2.419 3.363-4.496 3.415l-1.093.027c-1.975.044-3.891-.626-5.394-1.902l-12.342-10.423c-2.461-2.082-3.443-5.421-2.502-8.5l3.069-10.037c.972-3.179 3.795-5.421 7.061-5.668.201-.023.396-.03.598-.028l13.459-.059 12.025 10.688c2.352 2.083 3.269 5.359 2.349 8.369z" fill="#ffd3b3"/><path d="m445.518 223.348-2.869-.877 5.365-17.547c.775-2.536 3.075-4.332 5.724-4.47l6.03-.314.156 2.996-6.03.314c-1.394.073-2.604 1.017-3.011 2.351z" fill="#fcb98b"/><path d="m454.112 231.025-2.869-.877 5.246-17.158c.706-2.308 2.622-3.99 5.001-4.391l4.156-.7.498 2.958-4.156.7c-1.251.211-2.259 1.096-2.63 2.31z" fill="#fcb98b"/><path d="m429.909 247.239h10.475v3h-10.475z" fill="#fcb98b" transform="matrix(.292 -.956 .956 .292 70.051 592.146)"/><path d="m451.412 78.948h25.87v7.999h-25.87z" fill="#6e83b7" transform="matrix(.707 -.707 .707 .707 77.339 352.621)"/><path d="m478.2 88.094h-8v-11h-11v-8h19z" fill="#6e83b7"/><path d="m460.347 138.306h8v25.87h-8z" fill="#6e83b7" transform="matrix(.707 -.707 .707 .707 29.061 372.642)"/><path d="m478.2 165.094h-19v-8h11v-11h8z" fill="#6e83b7"/><path d="m352.054 70.013h7.999v25.87h-7.999z" fill="#6e83b7" transform="matrix(.707 -.707 .707 .707 45.633 276.063)"/><path d="m350.2 88.094h-8v-19h19v8h-11z" fill="#6e83b7"/><path d="m343.119 147.241h25.87v8h-25.87z" fill="#6e83b7" transform="matrix(.707 -.707 .707 .707 -2.667 296.042)"/><path d="m361.2 165.094h-19v-19h8v11h11z" fill="#6e83b7"/><path d="m302.766 221.8h-46.566-46.566l-30.056 8.976c5.637 32.448 37.793 57.318 76.621 57.318s70.984-24.87 76.621-57.318z" fill="#edeff1"/><path d="m96.181 194.764c.254-3.33-2.073-6.305-5.366-6.86-3.609-.608-7.002 1.902-7.476 5.532 0 0-.633 7.027-1.082 11.795-.028.292-.079.578-.141.86-.423 1.933-1.628 3.601-3.33 4.621l15.235 10.869 1.123-13.254z" fill="#ffd3b3"/><path d="m62.2 86.094h80v110h-80z" fill="#edeff1"/><path d="m68.2 97.094h68v6h-68z" fill="#d3d3d3"/><path d="m68.2 112.094h68v6h-68z" fill="#d3d3d3"/><path d="m68.2 127.094h68v6h-68z" fill="#d3d3d3"/><path d="m68.2 142.094h68v6h-68z" fill="#d3d3d3"/><path d="m68.2 157.094h68v6h-68z" fill="#d3d3d3"/><path d="m92.232 230.737v-.002c1.317-1.378 1.452-3.099 1.582-4.808l.286-4.333-15.275-10.875c-.295.176-.619.336-.942.471l-.102.037c-2.058.861-4.41.674-6.306-.502l-6.504-4.033c-2.468-1.547-3.765-4.426-3.287-7.299l4.377-15.228 4.57-.344 1.077 2.424c1.23 2.769 4.38 4.129 7.238 3.127 3.127-1.096 4.707-4.579 3.473-7.655l-1.724-4.294c-1.399-3.484-4.835-5.714-8.586-5.573l-9.452.356c-3.555.134-6.687 2.373-7.965 5.693l-1.965 5.107-4.397 13.071-12.023 10.684c-2.353 2.091-3.271 5.36-2.351 8.37l8.112 26.53c.947 3.096 3.024 5.722 5.82 7.355l5.231 3.055c1.747 1.021 3.046 2.662 3.638 4.597l1.045 3.418 36.121-11.078-2.876-9.615c-.893-2.919-.341-6.06 1.185-8.656z" fill="#ffd3b3"/><path d="m59.224 232.631 12.325-10.421c3.045-2.576 4.317-6.628 3.384-10.463-1.208-.032-2.403-.369-3.458-1.023l-6.504-4.033c-2.468-1.547-3.765-4.426-3.287-7.299l1.651-5.745h-14.189l-.817 2.428-12.023 10.684c-2.353 2.091-3.271 5.36-2.351 8.37l1.868 6.11 5.877 1.472c.6.141 1.048.607 1.228 1.196l1.815 5.938c.913 2.986 3.44 5.1 6.562 5.178l.909.083c1.134.026 2.247-.129 3.32-.457 1.367-.415 2.604-1.096 3.69-2.018z" fill="#fcb98b"/><path d="m33.957 215.134 1.151 3.764 6.746 1.587c1.439.339 2.589 1.416 3.021 2.829l1.816 5.938c.608 1.987 2.419 3.363 4.496 3.415l1.093.027c1.975.044 3.891-.626 5.394-1.902l12.342-10.423c2.461-2.082 3.443-5.421 2.502-8.5l-3.069-10.037c-.972-3.179-3.795-5.421-7.061-5.668-.201-.023-.396-.03-.598-.028l-13.459-.059-12.025 10.688c-2.352 2.083-3.269 5.359-2.349 8.369z" fill="#ffd3b3"/><path d="m66.883 223.348-5.365-17.548c-.407-1.334-1.617-2.279-3.011-2.351l-6.03-.314.156-2.996 6.03.314c2.648.138 4.948 1.934 5.724 4.47l5.365 17.547z" fill="#fcb98b"/><path d="m58.288 231.025-5.246-17.158c-.37-1.214-1.378-2.099-2.63-2.31l-4.156-.7.498-2.958 4.156.7c2.38.401 4.296 2.083 5.001 4.391l5.246 17.158z" fill="#fcb98b"/><path d="m75.741 243.503h3v10.382h-3z" fill="#fcb98b" transform="matrix(.956 -.292 .292 .956 -69.35 33.459)"/><path d="m115.113 294.975 19.887 64.775.034-17.257c.004-2.001-.292-3.991-.879-5.904l-15.617-50.92z" fill="#466089"/><path d="m397.288 294.975-19.887 64.775-.034-17.257c-.004-2.001.292-3.991.879-5.904l15.617-50.92z" fill="#466089"/><path d="m164.2 491.194v15.9h92 92v-15.9h-92z" fill="#466089"/><path d="m245.434 491.194h21.532v15.9h-21.532z" fill="#ffe352"/><path d="m302.766 221.8-24.986 37.48-3.41-4.62-4.42 5.482 8.109 11.004 31.353-47.368z" fill="#d3d3d3"/><path d="m209.635 221.8 24.986 37.48 3.369-4.58 4.213 5.777-7.861 10.669-31.353-47.368z" fill="#d3d3d3"/><path d="m246.158 287.522c3.288.371 6.638.573 10.042.573 3.057 0 6.067-.171 9.031-.471l-1.081-20.393h-17.036z" fill="#80d6fb"/><path d="m261.743 275.18h-2c0-7.164-3.834-9.246-3.998-9.331l.902-1.785c.208.104 5.096 2.645 5.096 11.116z" fill="#46bee8"/><path d="m252.657 275.18h-2c0-8.471 4.888-11.012 5.096-11.116l.902 1.785c-.164.085-3.998 2.168-3.998 9.331z" fill="#46bee8"/><path d="m228.942 208.171-19.307 13.629 24.986 37.48 12.519-16.99c2.21-2.999 5.214-5.322 8.673-6.706l.387-.155z" fill="#edeff1"/><path d="m283.458 208.171 19.308 13.629-24.986 37.48-12.519-16.99c-2.21-2.999-5.214-5.322-8.673-6.706l-.387-.155z" fill="#edeff1"/><path d="m259.458 235.429h-6.516c-13.255 0-24-10.745-24-24v-39.38h54.516v39.38c0 13.255-10.745 24-24 24z" fill="#ffd3b3"/><path d="m228.942 186.684c8.334 3.721 17.554 5.809 27.258 5.809s18.924-2.087 27.258-5.809v-14.635h-54.516z" fill="#fcb98b"/><path d="m314.123 125.587c0 31.933-25.99 57.82-57.923 57.82s-57.923-25.887-57.923-57.82v-56.891h115.846z" fill="#ffd3b3"/><path d="m246.2 156.094h20l-.106.425c-1.113 4.452-5.113 7.575-9.701 7.575h-.384c-4.589 0-8.589-3.123-9.701-7.575z" fill="#edeff1"/><path d="m261.879 140.977h-13.483l1.408-16.879 5.978.499-.864 10.38h6.961z" fill="#fcb98b"/><path d="m245.979 95.954s-17.793-7.382-32.937 5.679c0 0 17.604-4.543 29.529 1.136z" fill="#6e83b7"/><circle cx="233.485" cy="114.126" fill="#6e83b7" r="5.679"/><path d="m264.853 100.407s15.435-11.527 33.323-2.585c0 0-18.181-.08-28.346 8.354z" fill="#6e83b7"/><path d="m273.604 115.445-3.011-2.634c.288-.33 7.175-8.077 16.628-6.786l-.541 3.963c-7.301-.996-13.019 5.392-13.076 5.457z" fill="#fcb98b"/><path d="m281.532 117.349c-4.449-1.914-9.09-1.253-9.138-1.245l-.588-3.957c.232-.035 5.823-.83 11.306 1.527z" fill="#fcb98b"/><path d="m314.123 87.087h4.264c6.799 0 12.074 5.933 11.28 12.684l-1.591 13.523c-.832 7.075-6.829 12.408-13.953 12.408z" fill="#ffd3b3"/><path d="m198.277 87.087h-4.264c-6.798 0-12.074 5.933-11.28 12.684l1.591 13.523c.832 7.075 6.829 12.408 13.953 12.408z" fill="#ffd3b3"/><path d="m274.37 254.66-10.22 12.57h-17.04l-9.12-12.53 9.15-12.41c2.21-3 5.21-5.32 8.67-6.71l.39-.15.39.15c3.46 1.39 6.46 3.71 8.67 6.71z" fill="#80d6fb"/><path d="m256.538 263.813h-1.284c-5.117 0-9.925-2.447-12.936-6.584l-3.076-4.226-1.251 1.697 9.12 12.53h17.04l10.22-12.57-1.32-1.793-4.097 5.04c-3.04 3.737-7.6 5.906-12.416 5.906z" fill="#46bee8"/><path d="m307.2 68.696v20.789c0 3.371 1.59 6.568 4.18 8.725l2.82 2.273v-65.454h-42.1v33.667z" fill="#466089"/><g fill="#6e83b7"><path d="m296.817 68.696h-91.617v20.789c0 3.371-1.59 6.568-4.18 8.726l-2.82 2.273v-13.39h-4v-37-9c0-9.941 8.059-18 18-18h.842c0-9.941 8.059-18 18-18h85.775c5.523 0 10 4.477 10 10v23.602c0 16.569-13.431 30-30 30z"/><path d="m44.054 70.013h7.999v25.87h-7.999z" transform="matrix(.707 -.707 .707 .707 -44.578 58.274)"/><path d="m42.2 88.094h-8v-19h19v8h-11z"/><path d="m35.119 147.241h25.87v8h-25.87z" transform="matrix(.707 -.707 .707 .707 -92.864 78.267)"/><path d="m53.2 165.094h-19v-19h8v11h11z"/><path d="m143.412 78.948h25.87v7.999h-25.87z" transform="matrix(.707 -.707 .707 .707 -12.862 134.841)"/><path d="m170.2 88.094h-8v-11h-11v-8h19z"/><path d="m152.347 138.306h8v25.87h-8z" transform="matrix(.707 -.707 .707 .707 -61.15 154.852)"/><path d="m170.2 165.094h-19v-8h11v-11h8z"/></g></svg>